<svg xmlns="http://www.w3.org/2000/svg" width="512" height="512" viewBox="0 0 439.963 439.963">
    <path d="M421.836 134.33c-11.611-27.121-27.172-50.487-46.686-70.089-19.502-19.604-42.824-35.215-69.948-46.825C278.088 5.806 249.674 0 219.985 0c-29.692 0-58.101 5.809-85.224 17.416-27.124 11.61-50.441 27.218-69.949 46.825C45.303 83.843 29.74 107.209 18.13 134.33 6.521 161.453.715 189.958.715 219.838c0 29.881 5.806 58.432 17.415 85.648 11.613 27.223 27.172 50.627 46.682 70.236 19.508 19.605 42.825 35.217 69.949 46.818 27.123 11.615 55.531 17.422 85.224 17.422 29.693 0 58.103-5.807 85.217-17.422 27.124-11.607 50.446-27.213 69.948-46.818 19.514-19.609 35.074-43.014 46.686-70.236 11.611-27.217 17.412-55.768 17.412-85.648-.004-29.88-5.801-58.385-17.412-85.508zM90.078 305.198c-16.94-26.066-25.41-54.532-25.406-85.364 0-28.167 6.949-54.243 20.843-78.227 13.891-23.982 32.738-42.919 56.527-56.818 23.791-13.894 49.772-20.839 77.943-20.839 31.411 0 59.952 8.661 85.652 25.981L90.078 305.198zm272.935-24.687c-8.187 19.318-19.219 35.927-33.113 49.823-13.9 13.895-30.409 24.982-49.539 33.254-19.13 8.277-39.259 12.422-60.382 12.422-30.452 0-58.717-8.466-84.794-25.413l215.273-214.985c16.566 25.505 24.838 53.581 24.838 84.223-.005 21.13-4.098 41.352-12.283 60.676z" fill="#615f5f"/>
</svg>
