<svg id="e82f5aa6-250b-4314-90d2-e67fba5ca53b" data-name="Layer 1" xmlns="http://www.w3.org/2000/svg" viewBox="0 0 715 116.62"><defs><style>.\33 ee87633-1725-4ffe-b4de-ff66095a658c,.\35 ad81821-4a5a-44c2-94f5-ce97d2d4f025,.\39 41b9674-0007-4ed4-aeb8-3d0bb14ae071{fill:#a9231c;stroke-miterlimit:10;}.\33 ee87633-1725-4ffe-b4de-ff66095a658c,.\39 41b9674-0007-4ed4-aeb8-3d0bb14ae071{stroke:#e2c157;}.\39 41b9674-0007-4ed4-aeb8-3d0bb14ae071{stroke-width:7px;}.\38 b36d543-b069-4df0-afd5-a79ceda2ffd4{fill:#e9e3c7;}.\33 ee87633-1725-4ffe-b4de-ff66095a658c{stroke-width:4px;}.\32 4d7c1d4-a2ad-46ca-820b-fdc96727ad5c{fill:#fcfcfc;}.\35 ad81821-4a5a-44c2-94f5-ce97d2d4f025{stroke:#e1c056;stroke-width:6px;}.\34 02c6d9a-e7b9-4204-b0e2-9864f49bae87{fill:#e8e3c7;}</style></defs><title>seat_finder_title</title><path class="941b9674-0007-4ed4-aeb8-3d0bb14ae071" d="M315.62,271.78l422.38-.4a12,12,0,0,1,12,12v45.24a12,12,0,0,1-12,12H54a12,12,0,0,1-12-12V283.38a12,12,0,0,1,12-12h0" transform="translate(-38.5 -253)"/><path class="8b36d543-b069-4df0-afd5-a79ceda2ffd4" d="M58,290.36H70.32c11.37,0,18,6.43,18,15.46v.09c0,9-6.68,15.73-18.14,15.73H58Zm12.42,23.59c5.27,0,8.78-2.86,8.78-7.9v-.1c0-5-3.51-7.9-8.78-7.9h-3.6v15.9Z" transform="translate(-38.5 -253)"/><path class="8b36d543-b069-4df0-afd5-a79ceda2ffd4" d="M92.44,290.36h15c4.86,0,8.24,1.26,10.37,3.41a9.57,9.57,0,0,1,2.82,7.28v.09a9.91,9.91,0,0,1-6.55,9.61l7.6,10.9H111.53l-6.41-9.48h-3.87v9.48H92.44Zm14.64,15c3,0,4.73-1.44,4.73-3.71v-.1c0-2.45-1.81-3.7-4.78-3.7h-5.77v7.51Z" transform="translate(-38.5 -253)"/><path class="8b36d543-b069-4df0-afd5-a79ceda2ffd4" d="M135.06,290.25h8.5l13.55,31.5h-9.45l-2.33-5.58H133.06l-2.28,5.58H121.5Zm7.73,19.17-3.55-8.89-3.59,8.89Z" transform="translate(-38.5 -253)"/><polygon class="8b36d543-b069-4df0-afd5-a79ceda2ffd4" points="122.21 37.36 147.68 37.36 147.68 44.95 131.04 44.95 131.04 50.26 146.09 50.26 146.09 57.48 131.04 57.48 131.04 68.64 122.21 68.64 122.21 37.36"/><polygon class="8b36d543-b069-4df0-afd5-a79ceda2ffd4" points="159.21 44.95 149.66 44.95 149.66 37.36 177.59 37.36 177.59 44.95 168.03 44.95 168.03 68.64 159.21 68.64 159.21 44.95"/><polygon class="8b36d543-b069-4df0-afd5-a79ceda2ffd4" points="181.49 37.36 190.3 37.36 190.3 49.06 201.63 49.06 201.63 37.36 210.45 37.36 210.45 68.64 201.63 68.64 201.63 56.76 190.3 56.76 190.3 68.64 181.49 68.64 181.49 37.36"/><path class="8b36d543-b069-4df0-afd5-a79ceda2ffd4" d="M253.87,306.09V306c0-9,7.37-16.28,17.19-16.28s17.1,7.2,17.1,16.18V306c0,9-7.37,16.27-17.19,16.27s-17.1-7.2-17.1-16.18m25.28,0V306a8.19,8.19,0,0,0-8.19-8.45,8,8,0,0,0-8.05,8.35V306a8.18,8.18,0,0,0,8.14,8.44,8,8,0,0,0,8.1-8.36" transform="translate(-38.5 -253)"/><path class="8b36d543-b069-4df0-afd5-a79ceda2ffd4" d="M291.78,307.63V290.07h9v17.39c0,4.51,2.32,6.66,5.86,6.66s5.87-2.06,5.87-6.45v-17.6h9v17.34c0,10.09-5.87,14.52-14.92,14.52s-14.73-4.51-14.73-14.3" transform="translate(-38.5 -253)"/><path class="8b36d543-b069-4df0-afd5-a79ceda2ffd4" d="M324.12,317l4.91-5.77A16.59,16.59,0,0,0,339.36,315c2.36,0,3.64-.8,3.64-2.14v-.09c0-1.3-1-2-5.36-3-6.79-1.53-12-3.4-12-9.84v-.09c0-5.8,4.68-10,12.33-10,5.4,0,9.64,1.42,13.09,4.16l-4.41,6.12a16.1,16.1,0,0,0-8.91-3.09c-2.14,0-3.18.89-3.18,2v.09c0,1.43,1.09,2.06,5.49,3,7.33,1.57,11.87,3.9,11.87,9.75V312c0,6.39-5.13,10.18-12.87,10.18A22.53,22.53,0,0,1,324.12,317" transform="translate(-38.5 -253)"/><polygon class="8b36d543-b069-4df0-afd5-a79ceda2ffd4" points="317.58 37.36 343.17 37.36 343.17 44.73 326.3 44.73 326.3 49.47 341.57 49.47 341.57 56.3 326.3 56.3 326.3 61.27 343.39 61.27 343.39 68.64 317.58 68.64 317.58 37.36"/><path class="8b36d543-b069-4df0-afd5-a79ceda2ffd4" d="M410.62,317.1l4.91-5.77a16.59,16.59,0,0,0,10.33,3.76c2.36,0,3.64-.8,3.64-2.14v-.09c0-1.3-1-2-5.36-3-6.79-1.53-12-3.4-12-9.84v-.09c0-5.8,4.68-10,12.33-10,5.4,0,9.64,1.42,13.09,4.16l-4.41,6.12a16.1,16.1,0,0,0-8.91-3.09c-2.14,0-3.18.89-3.18,2v.09c0,1.43,1.09,2.06,5.49,3,7.33,1.57,11.87,3.9,11.87,9.75v.09c0,6.39-5.13,10.18-12.87,10.18a22.53,22.53,0,0,1-14.92-5.18" transform="translate(-38.5 -253)"/><polygon class="8b36d543-b069-4df0-afd5-a79ceda2ffd4" points="401.63 37.46 427.21 37.46 427.21 44.83 410.35 44.83 410.35 49.56 425.62 49.56 425.62 56.4 410.35 56.4 410.35 61.37 427.44 61.37 427.44 68.74 401.63 68.74 401.63 37.46"/><path class="8b36d543-b069-4df0-afd5-a79ceda2ffd4" d="M481.2,290.35h8.5l13.56,31.5H493.8l-2.32-5.58H479.19l-2.27,5.58h-9.27Zm7.73,19.17-3.55-8.89-3.59,8.89Z" transform="translate(-38.5 -253)"/><polygon class="8b36d543-b069-4df0-afd5-a79ceda2ffd4" points="471.89 45.05 462.34 45.05 462.34 37.46 490.27 37.46 490.27 45.05 480.71 45.05 480.71 68.74 471.89 68.74 471.89 45.05"/><polygon class="8b36d543-b069-4df0-afd5-a79ceda2ffd4" points="519 37.99 544.47 37.99 544.47 45.58 527.83 45.58 527.83 50.89 542.88 50.89 542.88 58.1 527.83 58.1 527.83 69.27 519 69.27 519 37.99"/><rect class="8b36d543-b069-4df0-afd5-a79ceda2ffd4" x="547.14" y="37.99" width="8.86" height="31.29"/><polygon class="8b36d543-b069-4df0-afd5-a79ceda2ffd4" points="558.89 37.99 567.12 37.99 580.22 54.52 580.22 37.99 588.96 37.99 588.96 69.27 581.23 69.27 567.63 52.11 567.63 69.27 558.89 69.27 558.89 37.99"/><path class="8b36d543-b069-4df0-afd5-a79ceda2ffd4" d="M631.26,291h12.28c11.37,0,18,6.43,18,15.46v.09c0,9-6.68,15.73-18.14,15.73h-12.1Zm12.42,23.59c5.27,0,8.78-2.86,8.78-7.9v-.1c0-5-3.51-7.9-8.78-7.9h-3.6v15.9Z" transform="translate(-38.5 -253)"/><polygon class="8b36d543-b069-4df0-afd5-a79ceda2ffd4" points="625.22 37.99 650.82 37.99 650.82 45.36 633.95 45.36 633.95 50.09 649.23 50.09 649.23 56.93 633.95 56.93 633.95 61.9 651.05 61.9 651.05 69.27 625.22 69.27 625.22 37.99"/><path class="8b36d543-b069-4df0-afd5-a79ceda2ffd4" d="M691.76,291h15c4.86,0,8.24,1.26,10.37,3.41a9.57,9.57,0,0,1,2.82,7.28v.09a9.91,9.91,0,0,1-6.55,9.61l7.6,10.9H710.85l-6.41-9.48h-3.87v9.48h-8.82Zm14.64,15c3,0,4.73-1.44,4.73-3.71v-.1c0-2.45-1.81-3.7-4.78-3.7h-5.77V306Z" transform="translate(-38.5 -253)"/><rect class="3ee87633-1725-4ffe-b4de-ff66095a658c" x="17.41" y="2" width="267.76" height="28.34" rx="3.95" ry="3.95"/><path class="24d7c1d4-a2ad-46ca-820b-fdc96727ad5c" d="M142.62,270.3V260.19h5.16v10c0,2.6,1.33,3.84,3.38,3.84s3.38-1.19,3.38-3.72V260.19h5.16v10c0,5.82-3.38,8.37-8.6,8.37s-8.49-2.6-8.49-8.24" transform="translate(-38.5 -253)"/><polygon class="24d7c1d4-a2ad-46ca-820b-fdc96727ad5c" points="123.19 7.18 127.94 7.18 135.49 16.89 135.49 7.18 140.52 7.18 140.52 25.55 136.06 25.55 128.23 15.47 128.23 25.55 123.19 25.55 123.19 7.18"/><path class="24d7c1d4-a2ad-46ca-820b-fdc96727ad5c" d="M181,269.22v-.05c0-5.17,4.25-9.38,9.9-9.38s9.85,4.15,9.85,9.33v.05c0,5.18-4.25,9.38-9.9,9.38S181,274.4,181,269.22m14.57,0v-.05a4.72,4.72,0,0,0-4.72-4.87,4.63,4.63,0,0,0-4.64,4.81v.05a4.71,4.71,0,0,0,4.69,4.87,4.64,4.64,0,0,0,4.67-4.82" transform="translate(-38.5 -253)"/><polygon class="24d7c1d4-a2ad-46ca-820b-fdc96727ad5c" points="180.92 7.52 195.6 7.52 195.6 11.89 186 11.89 186 14.96 194.68 14.96 194.68 19.11 186 19.11 186 25.55 180.92 25.55 180.92 7.52"/><polygon class="24d7c1d4-a2ad-46ca-820b-fdc96727ad5c" points="164.25 7.52 178.93 7.52 178.93 11.89 169.34 11.89 169.34 14.96 178.01 14.96 178.01 19.11 169.34 19.11 169.34 25.55 164.25 25.55 164.25 7.52"/><rect class="24d7c1d4-a2ad-46ca-820b-fdc96727ad5c" x="197.58" y="7.52" width="5.11" height="18.03"/><path class="24d7c1d4-a2ad-46ca-820b-fdc96727ad5c" d="M243.18,269.22v-.05a9.35,9.35,0,0,1,9.67-9.38,9,9,0,0,1,7.78,3.76l-3.83,2.91a4.93,4.93,0,0,0-4-2.11,4.48,4.48,0,0,0-4.37,4.76v.05c0,2.71,1.8,4.82,4.37,4.82a5,5,0,0,0,4.14-2.19l3.83,2.67a9.69,9.69,0,0,1-17.59-5.25" transform="translate(-38.5 -253)"/><rect class="24d7c1d4-a2ad-46ca-820b-fdc96727ad5c" x="224.25" y="7.52" width="5.11" height="18.03"/><polygon class="24d7c1d4-a2ad-46ca-820b-fdc96727ad5c" points="253.85 7.52 253.85 25.55 268.53 25.55 268.53 21.17 258.94 21.17 258.94 18.11 258.94 13.96 258.94 7.52 253.85 7.52"/><path class="24d7c1d4-a2ad-46ca-820b-fdc96727ad5c" d="M277.65,260.39h4.9l7.82,18.15h-5.45l-1.34-3.22H276.5l-1.31,3.22h-5.34Zm4.46,11-2-5.12L278,271.44Z" transform="translate(-38.5 -253)"/><polygon class="24d7c1d4-a2ad-46ca-820b-fdc96727ad5c" points="39.56 11.73 34.05 11.73 34.05 7.35 50.15 7.35 50.15 11.73 44.64 11.73 44.64 25.38 39.56 25.38 39.56 11.73"/><polygon class="24d7c1d4-a2ad-46ca-820b-fdc96727ad5c" points="52.77 7.35 57.84 7.35 57.84 14.1 64.37 14.1 64.37 7.35 69.46 7.35 69.46 25.38 64.37 25.38 64.37 18.53 57.84 18.53 57.84 25.38 52.77 25.38 52.77 7.35"/><polygon class="24d7c1d4-a2ad-46ca-820b-fdc96727ad5c" points="72.69 7.35 87.43 7.35 87.43 11.6 77.71 11.6 77.71 14.33 86.52 14.33 86.52 18.27 77.71 18.27 77.71 21.13 87.56 21.13 87.56 25.38 72.69 25.38 72.69 7.35"/><rect class="5ad81821-4a5a-44c2-94f5-ce97d2d4f025" x="39.86" y="87.62" width="635.28" height="26" rx="7.89" ry="7.89"/><polygon class="402c6d9a-e7b9-4204-b0e2-9864f49bae87" points="46.52 94.39 57.98 94.39 57.98 97.8 50.49 97.8 50.49 100.19 57.27 100.19 57.27 103.44 50.49 103.44 50.49 108.46 46.52 108.46 46.52 94.39"/><path class="402c6d9a-e7b9-4204-b0e2-9864f49bae87" d="M97.78,354.46v0a7.73,7.73,0,0,1,15.43,0v0a7.73,7.73,0,0,1-15.43,0m11.38,0v0a3.69,3.69,0,0,0-3.68-3.8,3.61,3.61,0,0,0-3.62,3.76v0a3.68,3.68,0,0,0,3.66,3.8,3.62,3.62,0,0,0,3.64-3.76" transform="translate(-38.5 -253)"/><path class="402c6d9a-e7b9-4204-b0e2-9864f49bae87" d="M114.51,347.38h6.77a6.31,6.31,0,0,1,4.67,1.53,4.31,4.31,0,0,1,1.27,3.27v0a4.46,4.46,0,0,1-2.95,4.33l3.42,4.91H123.1l-2.88-4.27h-1.74v4.27h-4Zm6.59,6.76c1.35,0,2.13-.65,2.13-1.67v0c0-1.1-.82-1.66-2.15-1.66h-2.6v3.38Z" transform="translate(-38.5 -253)"/><polygon class="402c6d9a-e7b9-4204-b0e2-9864f49bae87" points="242.36 97.8 238.06 97.8 238.06 94.39 250.63 94.39 250.63 97.8 246.32 97.8 246.32 108.46 242.36 108.46 242.36 97.8"/><path class="402c6d9a-e7b9-4204-b0e2-9864f49bae87" d="M290.42,354.46v0a7.73,7.73,0,0,1,15.43,0v0a7.73,7.73,0,0,1-15.43,0m11.38,0v0a3.69,3.69,0,0,0-3.68-3.8,3.61,3.61,0,0,0-3.62,3.76v0a3.68,3.68,0,0,0,3.66,3.8,3.62,3.62,0,0,0,3.64-3.76" transform="translate(-38.5 -253)"/><path class="402c6d9a-e7b9-4204-b0e2-9864f49bae87" d="M307.15,354.46v0a7.73,7.73,0,0,1,15.43,0v0a7.73,7.73,0,0,1-15.43,0m11.38,0v0a3.69,3.69,0,0,0-3.68-3.8,3.61,3.61,0,0,0-3.62,3.76v0a3.68,3.68,0,0,0,3.66,3.8,3.62,3.62,0,0,0,3.64-3.76" transform="translate(-38.5 -253)"/><polygon class="402c6d9a-e7b9-4204-b0e2-9864f49bae87" points="356.21 97.8 351.92 97.8 351.92 94.39 364.48 94.39 364.48 97.8 360.18 97.8 360.18 108.46 356.21 108.46 356.21 97.8"/><path class="402c6d9a-e7b9-4204-b0e2-9864f49bae87" d="M404.28,354.46v0a7.73,7.73,0,0,1,15.43,0v0a7.73,7.73,0,0,1-15.43,0m11.38,0v0a3.69,3.69,0,0,0-3.68-3.8,3.61,3.61,0,0,0-3.62,3.76v0a3.68,3.68,0,0,0,3.66,3.8,3.62,3.62,0,0,0,3.64-3.76" transform="translate(-38.5 -253)"/><polygon class="402c6d9a-e7b9-4204-b0e2-9864f49bae87" points="568 97.8 563.7 97.8 563.7 94.39 576.27 94.39 576.27 97.8 571.97 97.8 571.97 108.46 568 108.46 568 97.8"/><polygon class="402c6d9a-e7b9-4204-b0e2-9864f49bae87" points="577.57 94.39 581.53 94.39 581.53 99.65 586.63 99.65 586.63 94.39 590.6 94.39 590.6 108.46 586.63 108.46 586.63 103.11 581.53 103.11 581.53 108.46 577.57 108.46 577.57 94.39"/><polygon class="402c6d9a-e7b9-4204-b0e2-9864f49bae87" points="591.89 94.39 603.41 94.39 603.41 97.7 595.82 97.7 595.82 99.83 602.69 99.83 602.69 102.91 595.82 102.91 595.82 105.14 603.51 105.14 603.51 108.46 591.89 108.46 591.89 94.39"/><polygon class="402c6d9a-e7b9-4204-b0e2-9864f49bae87" points="604.81 94.31 609.12 94.31 612.63 99.82 616.14 94.31 620.45 94.31 620.45 108.53 616.39 108.53 616.39 100.36 612.63 105.93 612.55 105.93 608.8 100.41 608.8 108.53 604.81 108.53 604.81 94.31"/><path class="402c6d9a-e7b9-4204-b0e2-9864f49bae87" d="M671.54,347.33h3.82l6.1,14.18H677.2l-1-2.51h-5.52l-1,2.51h-4.18ZM675,356l-1.6-4-1.62,4Z" transform="translate(-38.5 -253)"/><polygon class="402c6d9a-e7b9-4204-b0e2-9864f49bae87" points="648.23 99.41 648.23 94.39 644.25 94.39 644.25 108.46 655.72 108.46 655.72 105.05 648.23 105.05 648.23 102.65 648.23 99.41"/><polygon class="402c6d9a-e7b9-4204-b0e2-9864f49bae87" points="660.99 99.41 660.99 94.39 657.01 94.39 657.01 108.46 668.48 108.46 668.48 105.05 660.99 105.05 660.99 102.65 660.99 99.41"/><polygon class="402c6d9a-e7b9-4204-b0e2-9864f49bae87" points="112.61 94.39 116.57 94.39 116.57 99.65 121.67 99.65 121.67 94.39 125.64 94.39 125.64 108.46 121.67 108.46 121.67 103.11 116.57 103.11 116.57 108.46 112.61 108.46 112.61 94.39"/><polygon class="402c6d9a-e7b9-4204-b0e2-9864f49bae87" points="126.94 94.39 138.45 94.39 138.45 97.7 130.86 97.7 130.86 99.83 137.73 99.83 137.73 102.91 130.86 102.91 130.86 105.14 138.55 105.14 138.55 108.46 126.94 108.46 126.94 94.39"/><polygon class="402c6d9a-e7b9-4204-b0e2-9864f49bae87" points="139.85 94.39 143.55 94.39 149.44 101.83 149.44 94.39 153.38 94.39 153.38 108.46 149.9 108.46 143.78 100.74 143.78 108.46 139.85 108.46 139.85 94.39"/><polygon class="402c6d9a-e7b9-4204-b0e2-9864f49bae87" points="111.31 108.46 107 108.46 103.49 103.01 99.97 108.46 95.66 108.46 95.66 94.39 99.72 94.39 99.72 102.47 103.49 96.96 103.57 96.96 107.31 102.43 107.31 94.39 111.31 94.39 111.31 108.46"/><path class="402c6d9a-e7b9-4204-b0e2-9864f49bae87" d="M245.29,347.12h6.77a6.31,6.31,0,0,1,4.67,1.53,4.31,4.31,0,0,1,1.27,3.27v0a4.46,4.46,0,0,1-2.95,4.33l3.42,4.91h-4.58L251,356.93h-1.74v4.27h-4Zm6.59,6.76c1.35,0,2.13-.65,2.13-1.67v0c0-1.1-.82-1.66-2.15-1.66h-2.6v3.38Z" transform="translate(-38.5 -253)"/><path class="402c6d9a-e7b9-4204-b0e2-9864f49bae87" d="M209,348.28" transform="translate(-38.5 -253)"/><path class="402c6d9a-e7b9-4204-b0e2-9864f49bae87" d="M227.65,355.18v-7.94h4v7.86c0,2,1,3,2.64,3s2.64-.93,2.64-2.91v-8h4v7.84c0,4.56-2.64,6.56-6.71,6.56s-6.63-2-6.63-6.46" transform="translate(-38.5 -253)"/><polygon class="402c6d9a-e7b9-4204-b0e2-9864f49bae87" points="168.75 94.29 172.42 94.29 168.12 101.27 168.12 108.25 164.15 108.25 164.16 101.27 159.86 94.29 163.56 94.29 166.14 98.12 168.75 94.29"/><polygon class="402c6d9a-e7b9-4204-b0e2-9864f49bae87" points="219.96 94.12 231.48 94.12 231.48 97.44 223.89 97.44 223.89 99.57 230.76 99.57 230.76 102.65 223.89 102.65 223.89 104.88 231.58 104.88 231.58 108.2 219.96 108.2 219.96 94.12"/><path class="402c6d9a-e7b9-4204-b0e2-9864f49bae87" d="M244.83,347.43a1.25,1.25,0,0,1-.08.21v0a.45.45,0,0,1,0,.1,8,8,0,0,1-2.18,2.14l.39-1.41h0a1.58,1.58,0,1,1,2-1.05Z" transform="translate(-38.5 -253)"/><path class="402c6d9a-e7b9-4204-b0e2-9864f49bae87" d="M210.92,354.36v0a7.73,7.73,0,0,1,15.43,0v0a7.73,7.73,0,0,1-15.43,0m11.38,0v0a3.69,3.69,0,0,0-3.68-3.8,3.61,3.61,0,0,0-3.62,3.76v0a3.68,3.68,0,0,0,3.66,3.8,3.62,3.62,0,0,0,3.64-3.76" transform="translate(-38.5 -253)"/><path class="402c6d9a-e7b9-4204-b0e2-9864f49bae87" d="M426.19,354.46v0a7.25,7.25,0,0,1,7.5-7.27,7,7,0,0,1,6,2.92l-3,2.25a3.82,3.82,0,0,0-3.1-1.64,3.48,3.48,0,0,0-3.39,3.69v0a3.48,3.48,0,0,0,3.39,3.73,3.9,3.9,0,0,0,3.21-1.7l3,2.07a7.51,7.51,0,0,1-13.63-4.07" transform="translate(-38.5 -253)"/><polygon class="402c6d9a-e7b9-4204-b0e2-9864f49bae87" points="406.58 99.64 406.58 94.61 402.61 94.61 402.61 108.69 414.07 108.69 414.07 105.27 406.58 105.27 406.58 102.88 406.58 99.64"/><rect class="402c6d9a-e7b9-4204-b0e2-9864f49bae87" x="415.37" y="94.61" width="3.99" height="14.08"/><path class="402c6d9a-e7b9-4204-b0e2-9864f49bae87" d="M459.15,354.46v0a7.25,7.25,0,0,1,7.5-7.27,7,7,0,0,1,6,2.92l-3,2.25a3.82,3.82,0,0,0-3.1-1.64,3.48,3.48,0,0,0-3.39,3.69v0a3.48,3.48,0,0,0,3.39,3.73,3.9,3.9,0,0,0,3.21-1.7l3,2.07a7.51,7.51,0,0,1-13.63-4.07" transform="translate(-38.5 -253)"/><polygon class="402c6d9a-e7b9-4204-b0e2-9864f49bae87" points="448.76 108.63 444.17 108.63 444.08 108.49 440.71 104.37 439.54 104.42 439.54 108.69 435.58 108.63 435.58 94.55 439.54 94.61 439.54 98.88 440.71 98.82 444.08 94.69 444.17 94.55 448.76 94.55 443.11 101.59 448.76 108.63"/><polygon class="402c6d9a-e7b9-4204-b0e2-9864f49bae87" points="459.54 97.8 455.24 97.8 455.24 94.39 467.8 94.39 467.8 97.8 463.5 97.8 463.5 108.46 459.54 108.46 459.54 97.8"/><polygon class="402c6d9a-e7b9-4204-b0e2-9864f49bae87" points="469.1 94.39 473.06 94.39 473.06 99.65 478.16 99.65 478.16 94.39 482.13 94.39 482.13 108.46 478.16 108.46 478.16 103.11 473.06 103.11 473.06 108.46 469.1 108.46 469.1 94.39"/><path class="402c6d9a-e7b9-4204-b0e2-9864f49bae87" d="M521.93,347.38h6.77a6.31,6.31,0,0,1,4.67,1.53,4.31,4.31,0,0,1,1.27,3.27v0a4.46,4.46,0,0,1-2.95,4.33l3.42,4.91h-4.58l-2.88-4.27H525.9v4.27h-4Zm6.59,6.76c1.35,0,2.13-.65,2.13-1.67v0c0-1.1-.82-1.66-2.15-1.66h-2.6v3.38Z" transform="translate(-38.5 -253)"/><path class="402c6d9a-e7b9-4204-b0e2-9864f49bae87" d="M536.4,354.46v0a7.73,7.73,0,0,1,15.43,0v0a7.73,7.73,0,0,1-15.43,0m11.38,0v0a3.69,3.69,0,0,0-3.68-3.8,3.61,3.61,0,0,0-3.62,3.76v0a3.68,3.68,0,0,0,3.66,3.8,3.62,3.62,0,0,0,3.64-3.76" transform="translate(-38.5 -253)"/><path class="402c6d9a-e7b9-4204-b0e2-9864f49bae87" d="M553.13,355.15v-7.83h4v7.75c0,2,1,3,2.64,3s2.64-.92,2.64-2.87v-7.85h4v7.73c0,4.5-2.64,6.48-6.71,6.48s-6.63-2-6.63-6.38" transform="translate(-38.5 -253)"/><polygon class="402c6d9a-e7b9-4204-b0e2-9864f49bae87" points="544.19 94.39 548.15 94.39 548.15 99.65 553.25 99.65 553.25 94.39 557.22 94.39 557.22 108.46 553.25 108.46 553.25 103.11 548.15 103.11 548.15 108.46 544.19 108.46 544.19 94.39"/><path class="402c6d9a-e7b9-4204-b0e2-9864f49bae87" d="M581.4,358.54a7.51,7.51,0,0,1-13.63-4.07v0a7.25,7.25,0,0,1,7.5-7.27,7,7,0,0,1,6,2.92l-3,2.25a3.83,3.83,0,0,0-3.11-1.63,3.47,3.47,0,0,0-3.39,3.69v0a3.48,3.48,0,0,0,3.39,3.74,3.83,3.83,0,0,0,3.13-1.62h-3.81l-.09-3.23h6.81Z" transform="translate(-38.5 -253)"/><path class="402c6d9a-e7b9-4204-b0e2-9864f49bae87" d="M344,355.4v-7.9h4v7.82c0,2,1,3,2.64,3s2.64-.93,2.64-2.9V347.5h4v7.8c0,4.54-2.64,6.53-6.71,6.53s-6.63-2-6.63-6.44" transform="translate(-38.5 -253)"/><path class="402c6d9a-e7b9-4204-b0e2-9864f49bae87" d="M358.86,359.24l2.21-2.6a7.46,7.46,0,0,0,4.65,1.69c1.06,0,1.64-.36,1.64-1v0c0-.58-.47-.9-2.41-1.35-3.05-.69-5.41-1.53-5.41-4.43v0c0-2.61,2.11-4.5,5.55-4.5a9.1,9.1,0,0,1,5.89,1.87l-2,2.75a7.25,7.25,0,0,0-4-1.39c-1,0-1.43.4-1.43.9v0c0,.64.49.93,2.47,1.37,3.3.71,5.34,1.75,5.34,4.39v0c0,2.87-2.31,4.58-5.79,4.58a10.14,10.14,0,0,1-6.71-2.33" transform="translate(-38.5 -253)"/><polygon class="402c6d9a-e7b9-4204-b0e2-9864f49bae87" points="341.76 94.31 345.44 94.31 341.14 101.29 341.13 108.26 337.17 108.26 337.17 101.29 332.87 94.31 336.57 94.31 339.15 98.14 341.76 94.31"/><path class="402c6d9a-e7b9-4204-b0e2-9864f49bae87" d="M342.4,351.14v0c0-2.35-1.93-4-6.94-4l-6.4,0v14.36l6.33,0c5.06,0,7-1.74,7-4.08v0c0-1.29-.88-2.37-2.51-3.09C341.52,353.52,342.4,352.42,342.4,351.14Zm-8.51-1.53h1.44c1.74,0,3.06.24,3.06,1.54v0c0,1.31-1.32,1.54-3.06,1.54h-1.44Zm4.5,7.8c0,1.31-1.32,1.53-3.06,1.53h-1.44v-3.09h1.44c1.74,0,3.06.24,3.06,1.54Z" transform="translate(-38.5 -253)"/></svg>