<svg id="d56430d9-59ef-424e-914b-fe8830656482" data-name="Layer 1" xmlns="http://www.w3.org/2000/svg" viewBox="0 0 462.76 146.18"><defs><style>.a2eeac7b-d921-4a4a-966f-02c6498ac253{fill:#e1c056;stroke:#aa231c;stroke-miterlimit:10;stroke-width:10px;}.b4038e47-1c8d-4d64-ad74-26215112ae78{fill:#aa231c;}.cb7e66b9-3ff1-409b-b53e-d14ab45861f8{fill:#e8e3c7;}</style></defs><title>sold_out</title><path class="a2eeac7b-d921-4a4a-966f-02c6498ac253" d="M444.33,346.25l-2.11,4.28-1.41,1.77c-4,5.06-9.62,8-15.38,8H366.31a20.1,20.1,0,0,1-15.45-8l-1.4-1.77-1.78-4.28" transform="translate(-168.81 -219.13)"/><path class="a2eeac7b-d921-4a4a-966f-02c6498ac253" d="M626.57,267.5c-3.3,49.69-3.83,57.1-4,59a20,20,0,0,1-16.29,17.81L593,346.25l-389-.58-9.56-1.34a20.06,20.06,0,0,1-16.35-17.8c0-.5-4.26-54.61-4.34-56.54a17.74,17.74,0,0,1,14.75-18.36l11.78-2.07,1.08-1.2a24.47,24.47,0,0,1,15.91-8.12c37.75-3.5,65.48-3.88,97.6-4.32h.39l15.79-.23,2.15,0,1.37-1.65a21.82,21.82,0,0,1,14.53-7.84c14.88-1.32,31.79-2,48.9-2s34,.7,48.81,2a21.5,21.5,0,0,1,14.54,7.68l1.37,1.63,2.13,0c7.92.16,15.82.27,22.78.36H488c31,.44,63,.9,98.68,4.37A25.07,25.07,0,0,1,603,248.91l1.07,1.24,7.91,1.43C620.68,252.88,626.79,259,626.57,267.5Z" transform="translate(-168.81 -219.13)"/><path class="b4038e47-1c8d-4d64-ad74-26215112ae78" d="M212.88,336.66c-5.1-.74-11.7-1.51-16.8-2.31a10,10,0,0,1-7.85-8.66c-.21-2.53-.43-4.9-.63-7l-.38-6.13h12.33a1.48,1.48,0,0,0,1.48-1.48v-4.51a1.5,1.5,0,0,0-1.5-1.5H186.77L185.35,282h12.73a1.48,1.48,0,0,0,1.48-1.48V276a1.5,1.5,0,0,0-1.5-1.5H184.89l-1-4.82a7.45,7.45,0,0,1,6.36-8.06c5.88-1,10.27-1.9,16.16-2.79a15.1,15.1,0,0,1,11.82-8.5c46.73-4.33,78.47-3.84,121.65-4.66a11.8,11.8,0,0,1,10.21-9.42,582.17,582.17,0,0,1,95.87,0,11.81,11.81,0,0,1,10.17,9.21c42.73,1,82.52.3,129.51,4.88a15.18,15.18,0,0,1,12.05,9c4.75.74,7.83,1.44,12.74,2.28,3.43.59,6.64,3.69,6.55,7.3l-1.1,5.58H601.66a1.48,1.48,0,0,0-1.48,1.48v4.51a1.5,1.5,0,0,0,1.5,1.5h13.77l-1.27,23.17h-14a1.49,1.49,0,0,0-1.49,1.49v4.5a1.5,1.5,0,0,0,1.5,1.5H613.7c-.22,2.35-.86,9.17-1.18,13.08a10,10,0,0,1-7.85,8.66Zm391.78-2.31" transform="translate(-168.81 -219.13)"/><path class="cb7e66b9-3ff1-409b-b53e-d14ab45861f8" d="M524.68,270.45H512.62a.51.51,0,0,0-.53.54v15.26h0v3.62c0,6.65-4.53,12-10.1,12s-10.09-5.4-10.09-12V271a.5.5,0,0,0-.52-.49l-12.06,0a.51.51,0,0,0-.53.54v15c0,18.23,10.41,28.5,23.21,28.5s23.22-10.27,23.22-28.5V271a.51.51,0,0,0-.53-.54" transform="translate(-168.81 -219.13)"/><path class="cb7e66b9-3ff1-409b-b53e-d14ab45861f8" d="M450.52,270c-6.85,0-12.72,2-17,5.73a22.75,22.75,0,0,0,0,33c4.29,3.77,10.05,5.69,17.12,5.69,6.85,0,12.74-2,17-5.78a22.47,22.47,0,0,0-.08-33c-4.3-3.73-10.19-5.7-17-5.7m.09,32.22c-5.91,0-11.88-3.11-11.88-10,0-5.85,4.85-9.92,11.79-9.92s12,4.17,12,9.92c0,5.92-4.88,10-11.86,10" transform="translate(-168.81 -219.13)"/><path class="cb7e66b9-3ff1-409b-b53e-d14ab45861f8" d="M579.27,280.86v0a.37.37,0,0,1-.38.39H561.54a.51.51,0,0,0-.54.54v31.54h0v.52a.5.5,0,0,1-.52.54H547.3a.51.51,0,0,1-.53-.54V281.85a.51.51,0,0,0-.53-.54H528.9a.37.37,0,0,1-.38-.39v0l2.55-9.91.05-.22a.49.49,0,0,1,.47-.28H576.2a.48.48,0,0,1,.46.28l.06.22Z" transform="translate(-168.81 -219.13)"/><path class="cb7e66b9-3ff1-409b-b53e-d14ab45861f8" d="M356.47,303.92H339.13a.5.5,0,0,1-.53-.53v-30.6h0v-.5a.5.5,0,0,0-.53-.53H325.42a.5.5,0,0,0-.53.53v41.64a.5.5,0,0,0,.53.53h28.37a.49.49,0,0,0,.46-.27l.06-.22,2.54-9.61v-.05a.36.36,0,0,0-.38-.38" transform="translate(-168.81 -219.13)"/><path class="cb7e66b9-3ff1-409b-b53e-d14ab45861f8" d="M362.21,270.49v43.45a.5.5,0,0,0,.54.51h15c18.23,0,28.5-10,28.5-22.23S395.95,270,377.72,270h-15a.5.5,0,0,0-.54.51M378,282.55h3.59c6.65,0,12,4.34,12,9.67s-5.4,9.67-12,9.67H378a.49.49,0,0,1-.53-.51V283.14h0v-.09a.49.49,0,0,1,.5-.5h0Z" transform="translate(-168.81 -219.13)"/><path class="cb7e66b9-3ff1-409b-b53e-d14ab45861f8" d="M221.67,307.62l8.12-7.62a31.94,31.94,0,0,0,17.08,5c3.91,0,6-1.06,6-2.83V302c0-1.72-1.73-2.65-8.87-4-11.22-2-19.86-4.48-19.86-13V285c0-7.66,7.75-13.2,20.39-13.2,8.93,0,15.94,1.88,21.65,5.49l-7.29,8.08a31.27,31.27,0,0,0-14.73-4.07c-3.53,0-5.25,1.18-5.25,2.65V284c0,1.88,1.8,2.72,9.08,4,12.12,2.07,19.63,5.14,19.63,12.86V301c0,8.43-8.49,13.44-21.28,13.44-9.32,0-18.2-2.3-24.67-6.83" transform="translate(-168.81 -219.13)"/><path class="cb7e66b9-3ff1-409b-b53e-d14ab45861f8" d="M295.66,270c-6.85,0-12.72,2-17,5.73a22.75,22.75,0,0,0,0,33c4.29,3.77,10.05,5.69,17.12,5.69,6.85,0,12.74-2,17-5.78a22.47,22.47,0,0,0-.08-33c-4.3-3.73-10.19-5.7-17-5.7m.09,32.22c-5.91,0-11.88-3.11-11.88-10,0-5.85,4.85-9.92,11.79-9.92s12,4.17,12,9.92c0,5.92-4.88,10-11.86,10" transform="translate(-168.81 -219.13)"/></svg>